<svg xmlns="http://www.w3.org/2000/svg">
    <symbol viewBox="0 0 640 480"
            id="flag-ukraine"
    >
        <rect width="640" height="240" fill="#0057b7"/>
        <rect y="240" width="640" height="240" fill="#ffd700"/>
    </symbol>
    <symbol viewBox="0 0 16 16"
            fill="currentColor"
            id="icon-github"
    >
        <path d="M8 0C3.58 0 0 3.58 0 8c0 3.54 2.29 6.53 5.47 7.59.4.07.55-.17.55-.38 0-.19-.01-.82-.01-1.49-2.01.37-2.53-.49-2.69-.94-.09-.23-.48-.94-.82-1.13-.28-.15-.68-.52-.01-.53.63-.01 1.08.58 1.23.82.72 1.21 1.87.87 2.33.66.07-.52.28-.87.51-1.07-1.78-.2-3.64-.89-3.64-3.95 0-.87.31-1.59.82-2.15-.08-.2-.36-1.02.08-2.12 0 0 .67-.21 2.2.82.64-.18 1.32-.27 2-.27.68 0 1.36.09 2 .27 1.53-1.04 2.2-.82 2.2-.82.44 1.1.16 1.92.08 2.12.51.56.82 1.27.82 2.15 0 3.07-1.87 3.75-3.65 3.95.29.25.54.73.54 1.48 0 1.07-.01 1.93-.01 2.2 0 .21.15.46.55.38A8.013 8.013 0 0016 8c0-4.42-3.58-8-8-8z"/>
    </symbol>
    <symbol viewBox="0 0 24 24"
            fill="currentColor"
            id="icon-linkedin"
    >
        <path d="M20.5 2h-17A1.5 1.5 0 002 3.5v17A1.5 1.5 0 003.5 22h17a1.5 1.5 0 001.5-1.5v-17A1.5 1.5 0 0020.5 2zM8 19H5v-9h3zM6.5 8.25A1.75 1.75 0 118.3 6.5a1.78 1.78 0 01-1.8 1.75zM19 19h-3v-4.74c0-1.42-.6-1.93-1.38-1.93A1.74 1.74 0 0013 14.19a.66.66 0 000 .14V19h-3v-9h2.9v1.3a3.11 3.11 0 012.7-1.4c1.55 0 3.36.86 3.36 3.66z"/>
    </symbol>
    <symbol viewBox="0 0 64 64"
            fill="none"
            stroke="currentColor"
            stroke-width="2"
            stroke-linecap="round"
            stroke-linejoin="round"
            id="icon-codepen"
    >
        <path d="M3.06 41.732L32 60.932l28.94-19.2V22.268L32 3.068l-28.94 19.2zm57.878 0L32 22.268 3.06 41.732m0-19.463L32 41.47l28.94-19.2M32 3.068v19.2m0 19.463v19.2"
              stroke-width="5"/>
    </symbol>
    <symbol viewBox="0 0 20 20"
            fill="currentColor"
            id="icon-arrow-right"
    >
        <path fill-rule="evenodd"
              d="M5.22 14.78a.75.75 0 001.06 0l7.22-7.22v5.69a.75.75 0 001.5 0v-7.5a.75.75 0 00-.75-.75h-7.5a.75.75 0 000 1.5h5.69l-7.22 7.22a.75.75 0 000 1.06z"
              clip-rule="evenodd"/>
    </symbol>
    <symbol viewBox="0 0 20 20"
            fill="currentColor"
            id="icon-arrow-right-standard"
    >
        <path fill-rule="evenodd"
              d="M3 10a.75.75 0 01.75-.75h10.638L10.23 5.29a.75.75 0 111.04-1.08l5.5 5.25a.75.75 0 010 1.08l-5.5 5.25a.75.75 0 11-1.04-1.08l4.158-3.96H3.75A.75.75 0 013 10z"
              clip-rule="evenodd"/>
    </symbol>
    <symbol viewBox="0 -960 960 960"
            fill="currentColor"
            id="icon-rocket-launch"
    >
        <path d="m197-492 107 45.5q21-40.5 45.5-78.75t54-73.75L337-612q-8-1.5-15.5.75T308-603L197-492Zm127.5 62.5 113 113q53-25.5 101.5-59t93.5-78.5q61.5-61.5 93.75-131T766-759q-104.5 7.5-173.5 39.5T462-626q-45 45-78.5 94t-59 102.5Zm223-111q-16-15.5-16-37t16-37Q563-630 584.75-630t37.75 15.5q15.5 15.5 15.5 37t-15.5 37q-16 16-37.75 16t-37.25-16ZM499-189l111-111q6-6 8.25-13.5T619-329l-13-66.5q-35.5 29-73.75 53.75T453.5-296L499-189Zm291.5-593.5q4.5 101-32.25 188.5T650.5-435.5l-11.25 11.25L628-413l15 78.5q3 14.5-1 28t-14 24l-138 137-60.5-143-134.5-134L152.5-484 290-621q10-10.5 23.5-15t28-1.5L422-621q5.5-6 10.5-11.25t11-11.25q70.5-71 158.25-107.25T790.5-782.5ZM221-309.5q20-20 47.5-19.25T316-308.5q20 20 20 47.75t-19.5 47.25Q297-194 257-180.75T171.5-165q3-45 16.75-85.25T221-309.5Zm18.5 19.5q-13 13-23 39.25t-13 55.25q29-3 55.25-13.5T298-232.5q12.5-12 12.25-29.25T298-291q-12.5-12-29.5-11.75t-29 12.75Z"/>
    </symbol>
    <symbol viewBox="0 -960 960 960"
            fill="currentColor"
            id="icon-my-location"
    >
        <path d="M467.5-126v-50.5q-124.5-11-202.25-88.75T176.5-467.5H126V-493h50.5q11-124.5 88.75-202t202.25-88.5V-834H493v50.5q124.5 11 202 88.5t88.5 202H834v25.5h-50.5Q772.5-343 695-265.25T493-176.5v50.5h-25.5Zm13.03-76q115.52 0 196.5-81.5Q758-365 758-480.53q0-115.52-80.97-196.5Q596.05-758 480.53-758 365-758 283.5-677.03 202-596.05 202-480.53 202-365 283.5-283.5T480.53-202ZM480-375q-43.79 0-74.39-30.61Q375-436.21 375-480t30.61-74.39Q436.21-585 480-585t74.39 30.61Q585-523.79 585-480t-30.61 74.39Q523.79-375 480-375Zm-.06-25.5q33.06 0 56.31-23.19t23.25-56.25q0-33.06-23.19-56.31t-56.25-23.25q-33.06 0-56.31 23.19t-23.25 56.25q0 33.06 23.19 56.31t56.25 23.25ZM480-480Z"/>
    </symbol>
    <symbol viewBox="0 -960 960 960"
            fill="currentColor"
            id="icon-psychiatry"
    >
        <path d="M467.5-147.5v-315H466q-53.65 0-102.32-20-48.68-20-86.43-57.5-37.75-37.5-57.25-86.94-19.5-49.43-19.5-103.06v-27H227q52.19 0 101.28 20.84T415-677.8q32.5 32.3 52.3 74.16 19.81 41.86 24.2 88.14 10.5-20 23.25-38T544-587.93q37.86-37.39 87.18-58.23Q680.5-667 734-667h27v27q0 53.53-20.87 102.88-20.87 49.35-58.25 86.98Q644.5-412.5 595.9-393q-48.61 19.5-101.9 19.5h-1v226h-25.5Zm1-341.5q0-48.5-18.75-92.75T397-660q-34-34-78.29-52.75Q274.42-731.5 226-731.5q0 49.47 18 93.99Q262-593 296-559q34.5 34.5 79.01 52.25Q419.53-489 468.5-489Zm24.5 90q48.42 0 92.71-18Q630-435 664-469q34-34 52.75-78.51 18.75-44.52 18.75-93.99-49.47 0-93.99 18.75Q597-604 563-570q-34.5 34.5-52.25 78.5T493-399Zm0 0Zm-24.5-90Z"/>
    </symbol>
    <symbol viewBox="0 -960 960 960"
            fill="currentColor"
            id="icon-share"
    >
        <path d="M657.35-137q-36.35 0-61.1-24.85Q571.5-186.71 571.5-223q0-7 6.5-31L289.5-426q-12 15-29.9 23.5-17.89 8.5-38.34 8.5-35.11 0-59.68-25.27Q137-444.54 137-479.77q0-35.23 24.65-60.73Q186.29-566 221.5-566q20.23 0 38 8.37 17.78 8.36 29.5 23.13l289-171.08q-3.5-7.42-5-15.42t-1.5-16.5q0-35.63 24.9-60.56 24.89-24.94 61-24.94 36.1 0 60.85 25.04T743-737.15q0 35.98-24.96 60.82-24.96 24.83-60.62 24.83-20.69 0-37.8-8.75-17.11-8.75-29.12-24.25L302-512.5q3 8 4.75 16.32 1.75 8.31 1.75 16.26 0 7.94-1.5 15.89-1.5 7.96-4.5 15.97L590.5-276q11.79-15 29.01-24 17.23-9 37.91-9 35.66 0 60.62 25.25T743-223q0 36.5-24.98 61.25T657.35-137Zm-.1-25.5q25.96 0 43.11-17.14 17.14-17.15 17.14-43.11 0-25.75-17.25-43.25t-42.75-17.5q-26.21 0-43.36 17.61Q597-248.29 597-223q0 26 17.14 43.25 17.15 17.25 43.11 17.25Zm-435.75-257q25.93 0 43.71-17.14Q283-453.79 283-479.75q0-25.75-17.68-43.25t-43.82-17.5q-25.07 0-42.04 17.61-16.96 17.6-16.96 42.89 0 25.5 16.96 43 16.97 17.5 42.04 17.5ZM657.25-677q25.96 0 43.11-17.25 17.14-17.25 17.14-43t-17.25-43Q683-797.5 657.5-797.5q-26.21 0-43.36 17.25Q597-763 597-737.5q0 26 17.14 43.25Q631.29-677 657.25-677Zm.25 454ZM223-480Zm434.5-257.5Z"/>
    </symbol>
</svg>
